<svg width="201" height="88" viewBox="0 0 201 88" fill="none" xmlns="http://www.w3.org/2000/svg">
<path d="M93.9592 -52.7649C78.012 -48.691 61.1853 -42.7898 53.1811 -28.4078C44.6004 -12.99 46.533 5.74657 52.0712 22.4997C58.0116 40.4693 68.6373 56.1487 84.5306 66.4248C103.989 79.0058 127.259 93.6495 148.761 85.0166C170.245 76.3911 173.642 48.6951 182.235 27.1982C190.457 6.63139 208.533 -16.2887 196.758 -35.0489C184.967 -53.8341 156.18 -45.37 134.323 -49.1368C120.484 -51.5218 107.566 -56.2409 93.9592 -52.7649Z" fill="#FF7151"/>
<path d="M37.8995 -74.9348C22.2218 -69.1693 11.1145 -56.19 3.18595 -41.4873C-3.0821 -29.8637 1.63971 -16.5815 -0.587158 -3.56477C-4.49243 19.2628 -28.9137 43.6919 -14.4854 61.8074C-0.667374 79.1567 27.3279 60.5544 49.4712 59.2861C72.9038 57.944 105.111 74.5017 117.019 54.2755C129.441 33.1748 93.6248 12.8863 91.1277 -11.4719C88.7247 -34.912 118.565 -60.2959 103.423 -78.3495C88.8121 -95.7695 59.2384 -82.7822 37.8995 -74.9348Z" fill="#2C074B"/>
</svg>
