<?xml version="1.0" encoding="UTF-8"?><svg id="Layer_1" xmlns="http://www.w3.org/2000/svg" viewBox="0 0 144.67 148.32"><defs><style>.cls-1{fill:#1b1464;}</style></defs><path class="cls-1" d="m74.17,12.56l4.87.33-.1,1.48-6.68-.45.94-13.91,1.82.12-.84,12.43Z"/><path class="cls-1" d="m82.33,6.23c.64-.71,1.41-1.2,2.29-1.46.88-.26,1.79-.28,2.74-.04.93.23,1.69.63,2.28,1.2.59.57.97,1.2,1.16,1.89l.48-1.94,1.79.44-2.63,10.64-1.79-.44.49-1.98c-.5.54-1.15.92-1.94,1.16-.79.24-1.65.24-2.57.01-.95-.23-1.74-.68-2.39-1.33-.65-.65-1.09-1.46-1.32-2.41-.23-.95-.21-1.96.05-3.04.27-1.09.72-1.99,1.37-2.7Zm7.67,2.73c-.18-.68-.5-1.24-.97-1.69-.47-.45-1.04-.76-1.7-.92-.66-.16-1.3-.16-1.92.02-.62.18-1.17.52-1.64,1.04s-.81,1.17-1,1.98c-.2.82-.21,1.56-.04,2.25.17.68.49,1.25.96,1.7.47.45,1.03.76,1.69.92s1.3.15,1.93-.03c.63-.18,1.18-.53,1.65-1.05s.81-1.18,1.01-1.99.21-1.54.03-2.22Z"/><path class="cls-1" d="m96.43,10.19c.78-.56,1.63-.87,2.55-.94.92-.07,1.82.12,2.7.55.77.38,1.39.9,1.88,1.58.48.68.76,1.39.82,2.13l2.56-5.2,1.65.81-6.54,13.28-1.65-.81.91-1.85c-.61.43-1.33.67-2.15.74-.82.07-1.65-.11-2.5-.53-.87-.43-1.56-1.04-2.06-1.82-.5-.78-.76-1.66-.79-2.64-.02-.98.21-1.96.7-2.96.5-1,1.13-1.79,1.91-2.35Zm6.91,4.3c-.03-.7-.22-1.32-.59-1.86-.36-.54-.85-.97-1.46-1.27-.61-.3-1.24-.43-1.88-.39-.64.04-1.25.26-1.82.66-.57.4-1.04.98-1.4,1.72-.37.75-.54,1.48-.52,2.19.03.7.22,1.33.58,1.87.36.54.84.96,1.45,1.26.61.3,1.24.43,1.89.39.65-.04,1.27-.27,1.84-.68.57-.41,1.04-.98,1.41-1.73.37-.74.53-1.46.51-2.16Z"/><path class="cls-1" d="m114.86,26.05l-6.91-5.38c-.61.89-.84,1.79-.68,2.68.16.89.62,1.63,1.37,2.22.62.48,1.25.74,1.89.78s1.23-.12,1.78-.48l1.55,1.2c-.88.65-1.87.97-2.97.95-1.1-.02-2.17-.43-3.2-1.23-.82-.64-1.41-1.39-1.77-2.27-.36-.87-.46-1.79-.3-2.76.16-.96.59-1.89,1.29-2.79.7-.89,1.49-1.54,2.37-1.93.88-.39,1.79-.52,2.72-.38s1.81.54,2.66,1.19c.82.64,1.41,1.38,1.76,2.23.35.85.46,1.72.31,2.61-.15.89-.53,1.73-1.14,2.52-.21.27-.45.55-.72.83Zm.21-3.98c.07-.58-.03-1.14-.29-1.67-.26-.53-.64-.99-1.14-1.38-.73-.57-1.52-.82-2.4-.75-.87.07-1.66.48-2.37,1.24l5.46,4.25c.43-.55.67-1.11.74-1.7Z"/><path class="cls-1" d="m126.33,31.11c-.07,1.15-.68,2.23-1.83,3.22l-4.89,4.22-1.18-1.36,4.7-4.05c.83-.71,1.28-1.47,1.37-2.26s-.19-1.55-.8-2.26c-.63-.73-1.35-1.11-2.18-1.15-.83-.04-1.67.32-2.54,1.07l-4.59,3.96-1.19-1.38,8.3-7.16,1.19,1.38-1.18,1.02c.66-.09,1.31,0,1.95.26.64.27,1.2.69,1.69,1.25.87,1.01,1.27,2.09,1.2,3.24Z"/><path class="cls-1" d="m120.93,40.37c.07-.33.25-.59.54-.78.29-.19.6-.25.93-.18.33.07.59.25.78.54.18.28.24.58.16.91-.07.33-.26.58-.55.77s-.6.25-.93.19c-.33-.06-.58-.24-.77-.52-.19-.29-.25-.6-.18-.93Z"/><path class="cls-1" d="m123.04,43.74c.09-.33.29-.57.59-.74.3-.17.62-.21.94-.12.33.09.58.29.75.59.16.29.2.6.1.92-.09.32-.29.57-.59.74-.3.17-.62.21-.94.13-.32-.09-.57-.27-.73-.56-.17-.3-.21-.62-.12-.94Z"/><path class="cls-1" d="m124.94,47.27c.11-.32.33-.55.64-.7s.63-.17.95-.05c.32.11.55.33.7.64.14.3.16.61.04.92-.12.31-.33.54-.64.69-.31.15-.63.17-.94.06-.32-.11-.55-.31-.69-.61-.15-.31-.17-.63-.05-.95Z"/><path class="cls-1" d="m130.1,57.25l1.25,4.72-1.43.38-1.71-6.48,13.48-3.57.47,1.76-12.04,3.19Z"/><path class="cls-1" d="m138.71,62.98c.88.38,1.59.95,2.12,1.7.53.75.84,1.61.92,2.58.08.96-.06,1.8-.41,2.54-.35.74-.83,1.31-1.42,1.71l1.99-.17.15,1.83-10.92.91-.15-1.83,2.03-.17c-.67-.31-1.24-.8-1.72-1.47-.48-.68-.76-1.49-.83-2.43-.08-.97.08-1.87.5-2.69.41-.82,1.03-1.5,1.86-2.02.83-.52,1.79-.83,2.89-.92,1.12-.09,2.12.05,3,.43Zm-.13,8.14c.58-.38,1.01-.87,1.29-1.46s.39-1.23.33-1.9-.27-1.28-.63-1.81c-.37-.53-.87-.94-1.51-1.22-.64-.28-1.37-.39-2.19-.32-.84.07-1.55.3-2.14.68-.59.38-1.02.87-1.3,1.45-.28.59-.39,1.22-.33,1.89s.27,1.29.64,1.82c.37.54.88.95,1.53,1.23.65.28,1.38.39,2.2.32.82-.07,1.53-.29,2.11-.68Z"/><path class="cls-1" d="m139.49,77.57c.78.56,1.35,1.26,1.72,2.11.36.85.48,1.76.35,2.74-.11.85-.4,1.61-.89,2.29-.48.68-1.07,1.17-1.75,1.47l5.75.74-.23,1.83-14.68-1.88.23-1.83,2.04.26c-.6-.44-1.07-1.04-1.39-1.79-.33-.75-.43-1.6-.31-2.54.12-.97.47-1.81,1.05-2.54s1.32-1.26,2.24-1.6c.92-.34,1.92-.44,3.02-.3,1.11.14,2.06.49,2.84,1.05Zm-1.83,7.93c.65-.25,1.17-.64,1.57-1.16.4-.52.64-1.12.72-1.79.09-.67,0-1.31-.24-1.91-.25-.6-.65-1.1-1.22-1.51-.57-.41-1.26-.67-2.08-.77-.83-.11-1.58-.03-2.24.22-.66.25-1.18.63-1.58,1.15-.4.51-.64,1.11-.72,1.78-.09.67,0,1.31.25,1.92.25.6.66,1.11,1.24,1.52s1.27.67,2.09.77c.82.1,1.55.03,2.21-.22Z"/><path class="cls-1" d="m130.43,100.15l2.87-8.28c-1.04-.29-1.96-.22-2.75.22-.79.44-1.35,1.11-1.66,2.02-.26.74-.3,1.42-.12,2.04.17.62.52,1.13,1.03,1.53l-.64,1.85c-.9-.62-1.52-1.46-1.85-2.5-.34-1.05-.29-2.19.14-3.42.34-.98.87-1.79,1.57-2.41s1.55-1.01,2.51-1.17c.97-.16,1.98-.05,3.05.32,1.07.37,1.94.91,2.59,1.62.66.71,1.07,1.52,1.24,2.45.17.93.08,1.89-.27,2.9-.34.98-.86,1.78-1.55,2.39-.69.61-1.48.99-2.37,1.14-.89.15-1.81.06-2.75-.27-.33-.11-.67-.25-1.02-.42Zm3.84-1.08c.57-.13,1.07-.4,1.49-.81s.73-.92.94-1.53c.3-.87.28-1.71-.06-2.51-.34-.8-.99-1.42-1.94-1.85l-2.26,6.54c.66.23,1.27.28,1.84.15Z"/><path class="cls-1" d="m129.33,112.63c-1.12.3-2.33.07-3.64-.7l-5.57-3.28.91-1.55,5.34,3.15c.94.55,1.8.74,2.58.57s1.41-.67,1.89-1.49c.49-.83.62-1.64.39-2.43-.23-.79-.84-1.48-1.83-2.06l-5.22-3.08.92-1.57,9.44,5.56-.92,1.57-1.34-.79c.3.59.42,1.24.37,1.93-.05.69-.26,1.36-.64,2-.68,1.15-1.57,1.87-2.69,2.18Z"/><path class="cls-1" d="m118.82,110.49c.34-.04.64.05.91.26.27.21.43.49.47.83s-.05.64-.26.91c-.21.26-.48.41-.81.45-.33.03-.64-.05-.91-.27-.27-.21-.43-.49-.48-.82-.04-.33.04-.63.24-.89.21-.27.49-.43.83-.47Z"/><path class="cls-1" d="m116.29,113.59c.34-.02.64.09.89.32.26.23.4.52.41.86.02.34-.09.64-.32.89-.22.25-.5.38-.84.39-.33.01-.63-.1-.89-.33-.26-.23-.4-.52-.42-.85-.02-.33.08-.62.3-.87.23-.26.52-.4.86-.41Z"/><path class="cls-1" d="m113.58,116.49c.34,0,.63.13.87.38s.36.54.36.88c0,.34-.13.63-.38.87-.24.23-.53.34-.86.33-.33,0-.62-.14-.87-.39-.24-.25-.36-.54-.36-.87,0-.33.12-.62.36-.85.25-.24.54-.36.88-.36Z"/><path class="cls-1" d="m105.76,124.62l-4.06,2.71-.82-1.23,5.58-3.72,7.73,11.6-1.51,1.01-6.91-10.37Z"/><path class="cls-1" d="m103.14,134.61c-.08.96-.38,1.81-.92,2.55-.54.75-1.25,1.31-2.15,1.71-.88.38-1.73.53-2.54.43-.81-.1-1.5-.36-2.07-.79l.8,1.83-1.69.74-4.4-10.04,1.69-.74.82,1.87c.07-.73.35-1.43.84-2.1.48-.67,1.16-1.2,2.03-1.58.89-.39,1.79-.52,2.71-.4s1.75.49,2.51,1.1c.76.61,1.37,1.42,1.81,2.44.45,1.03.64,2.02.56,2.97Zm-7.75,2.51c.55.43,1.15.68,1.8.75.65.07,1.29-.03,1.91-.3.62-.27,1.13-.67,1.51-1.19.38-.52.61-1.12.67-1.82.06-.7-.08-1.42-.41-2.18-.34-.77-.78-1.37-1.34-1.81-.55-.43-1.15-.69-1.8-.76-.64-.08-1.28.02-1.9.3s-1.13.67-1.52,1.2c-.39.53-.61,1.14-.67,1.84-.06.7.08,1.43.41,2.19.33.76.77,1.35,1.32,1.78Z"/><path class="cls-1" d="m89.56,140.06c-.28.92-.76,1.69-1.45,2.3-.69.61-1.51,1.02-2.48,1.21-.84.17-1.65.13-2.45-.11-.8-.24-1.45-.64-1.95-1.19l1.14,5.69-1.8.36-2.91-14.51,1.8-.36.41,2.02c.22-.71.64-1.34,1.25-1.89.61-.55,1.38-.92,2.31-1.1.96-.19,1.87-.13,2.74.18s1.62.85,2.23,1.61c.62.76,1.03,1.68,1.25,2.77.22,1.1.19,2.11-.09,3.03Zm-8.1.8c.45.54.98.91,1.6,1.12.62.21,1.26.25,1.93.11.67-.13,1.24-.41,1.73-.84s.83-.97,1.04-1.64.23-1.41.07-2.22c-.17-.82-.47-1.51-.92-2.05-.45-.54-.98-.92-1.59-1.13-.61-.21-1.25-.25-1.92-.12-.67.13-1.25.42-1.74.85-.49.43-.84.98-1.04,1.66-.21.67-.23,1.42-.06,2.23.16.81.47,1.48.92,2.02Z"/><path class="cls-1" d="m65.21,138.67l8.76.14c-.05-1.08-.41-1.93-1.07-2.55-.66-.62-1.48-.93-2.43-.95-.79-.01-1.45.16-1.98.52-.53.36-.91.84-1.13,1.45l-1.96-.03c.31-1.05.91-1.9,1.8-2.54.89-.65,1.99-.96,3.3-.94,1.04.02,1.97.27,2.78.75.81.48,1.45,1.15,1.9,2.02.45.87.67,1.87.65,3-.02,1.13-.26,2.12-.73,2.97-.47.85-1.11,1.49-1.94,1.94s-1.77.66-2.84.64c-1.04-.02-1.96-.26-2.75-.72-.79-.47-1.4-1.1-1.82-1.9-.42-.8-.62-1.7-.61-2.7,0-.35.03-.71.08-1.1Zm2.23,3.31c.3.5.71.89,1.23,1.16.52.27,1.1.41,1.74.42.92.01,1.71-.27,2.36-.84.66-.58,1.04-1.38,1.15-2.42l-6.92-.11c-.01.69.13,1.29.43,1.8Z"/><path class="cls-1" d="m53.1,141.72c-.65-.96-.82-2.18-.51-3.67l1.3-6.33,1.76.36-1.25,6.07c-.22,1.07-.12,1.95.3,2.62.42.68,1.09,1.11,2.02,1.3.94.19,1.75.05,2.42-.42.68-.47,1.13-1.27,1.36-2.4l1.22-5.94,1.78.37-2.21,10.74-1.78-.37.31-1.53c-.46.48-1.03.8-1.7.98-.67.17-1.37.19-2.1.04-1.31-.27-2.28-.88-2.93-1.84Z"/><path class="cls-1" d="m51.75,131.09c.15.31.16.62.05.95-.12.33-.33.56-.63.71-.31.15-.62.16-.95.05-.31-.11-.54-.32-.68-.62s-.15-.62-.04-.95c.12-.33.32-.57.62-.71.3-.15.61-.17.92-.06.33.12.56.33.71.63Z"/><path class="cls-1" d="m48,129.69c.13.32.12.63-.02.95-.14.32-.36.54-.68.67-.31.13-.63.12-.95-.02-.31-.13-.52-.35-.64-.67s-.11-.63.02-.95c.14-.32.36-.54.67-.67.31-.13.62-.13.92,0,.32.14.54.36.67.68Z"/><path class="cls-1" d="m44.37,128.06c.1.32.08.64-.08.95-.16.31-.4.52-.72.62-.32.1-.64.08-.95-.08-.3-.15-.5-.39-.59-.71-.1-.32-.07-.63.09-.94s.39-.52.71-.62c.32-.11.62-.09.92.06.31.16.52.4.62.72Z"/><path class="cls-1" d="m34.17,123.26l-3.87-2.98.9-1.17,5.31,4.09-8.51,11.04-1.44-1.11,7.61-9.87Z"/><path class="cls-1" d="m23.87,123.98c-.93.24-1.84.22-2.72-.05-.88-.27-1.65-.77-2.3-1.48-.65-.71-1.06-1.46-1.23-2.26-.17-.8-.14-1.54.09-2.22l-1.48,1.35-1.24-1.36,8.09-7.39,1.24,1.36-1.51,1.38c.71-.17,1.47-.13,2.26.12.79.24,1.51.71,2.14,1.41.66.72,1.07,1.53,1.25,2.43.18.9.1,1.82-.24,2.74s-.91,1.75-1.73,2.5c-.83.75-1.71,1.25-2.64,1.49Zm-4.87-6.53c-.23.66-.27,1.31-.13,1.95.14.64.44,1.21.9,1.71.46.5.99.85,1.61,1.05.61.2,1.26.21,1.94.04.68-.17,1.32-.53,1.93-1.09.62-.57,1.05-1.18,1.28-1.85.23-.66.28-1.31.14-1.95-.14-.63-.43-1.2-.89-1.7-.46-.5-1-.85-1.62-1.05-.62-.2-1.28-.21-1.96-.04-.68.17-1.33.54-1.94,1.09-.61.56-1.03,1.17-1.26,1.83Z"/><path class="cls-1" d="m14.35,112.91c-.96.04-1.84-.17-2.64-.62s-1.45-1.1-1.95-1.95c-.43-.74-.66-1.52-.69-2.35-.03-.83.13-1.58.49-2.23l-5.01,2.92-.93-1.59,12.79-7.46.93,1.59-1.78,1.04c.75-.02,1.48.17,2.2.57.72.4,1.32,1.01,1.79,1.83.49.84.73,1.73.71,2.65-.01.93-.28,1.8-.8,2.63s-1.26,1.52-2.21,2.08c-.97.56-1.93.86-2.89.9Zm-3.38-7.41c-.36.6-.54,1.22-.54,1.88s.18,1.27.52,1.86c.34.59.79,1.04,1.35,1.36.56.32,1.19.47,1.88.45.7-.02,1.4-.24,2.12-.66.73-.42,1.27-.93,1.64-1.54.37-.6.55-1.22.55-1.87,0-.65-.17-1.27-.51-1.85-.34-.59-.8-1.04-1.37-1.37-.57-.33-1.2-.48-1.91-.45-.7.02-1.41.24-2.13.66-.71.42-1.25.92-1.61,1.52Z"/><path class="cls-1" d="m7.76,89.5l2.78,8.31c1-.41,1.69-1.02,2.05-1.85s.39-1.7.09-2.61c-.25-.75-.63-1.31-1.15-1.69-.51-.38-1.1-.58-1.75-.59l-.62-1.86c1.09-.05,2.09.23,3,.86.91.62,1.56,1.56,1.98,2.8.33.99.4,1.94.22,2.87-.18.93-.61,1.75-1.28,2.46-.67.72-1.54,1.25-2.61,1.61-1.07.36-2.09.46-3.04.3-.95-.16-1.78-.56-2.47-1.19s-1.21-1.45-1.55-2.47c-.33-.99-.41-1.93-.23-2.83.18-.9.57-1.68,1.19-2.35.62-.66,1.4-1.15,2.34-1.47.33-.11.68-.21,1.06-.29Zm-2.38,3.2c-.38.45-.61.96-.69,1.55-.08.58-.02,1.18.18,1.78.29.87.82,1.52,1.58,1.95.76.43,1.65.52,2.67.28l-2.19-6.56c-.66.22-1.17.55-1.55,1Z"/><path class="cls-1" d="m1.03,78.89c.7-.92,1.8-1.47,3.31-1.66l6.41-.79.22,1.79-6.15.76c-1.08.13-1.88.51-2.39,1.12-.51.61-.71,1.39-.59,2.33.12.95.51,1.67,1.17,2.16.66.49,1.57.66,2.7.52l6.01-.74.22,1.81-10.88,1.34-.22-1.81,1.55-.19c-.6-.29-1.09-.72-1.47-1.3s-.62-1.24-.71-1.98c-.16-1.32.11-2.44.8-3.36Z"/><path class="cls-1" d="m10.66,74.21c-.24.24-.54.35-.89.35-.35,0-.64-.13-.87-.37s-.35-.54-.35-.89c0-.33.13-.61.37-.84.24-.23.54-.34.88-.34.35,0,.64.13.88.36.24.24.35.52.35.86,0,.35-.13.64-.37.87Z"/><path class="cls-1" d="m10.78,70.21c-.26.22-.56.32-.91.29-.34-.03-.63-.17-.85-.43-.22-.26-.32-.56-.29-.9.03-.33.17-.61.42-.82s.56-.31.9-.28c.35.03.63.17.85.42.22.25.32.54.29.88-.03.35-.17.63-.42.85Z"/><path class="cls-1" d="m11.15,66.24c-.27.2-.58.28-.92.23-.34-.05-.62-.21-.82-.48-.2-.27-.28-.58-.23-.92.05-.33.21-.59.48-.79.27-.2.58-.27.92-.22.34.05.62.21.82.47.21.27.28.56.24.89-.05.34-.21.62-.48.82Z"/><path class="cls-1" d="m12.38,55.06l1.57-4.62,1.4.48-2.16,6.34L0,52.77l.59-1.72,11.8,4.01Z"/><path class="cls-1" d="m8.39,45.52c-.52-.81-.8-1.67-.82-2.59-.03-.92.2-1.81.67-2.66.46-.84,1.05-1.47,1.75-1.89.7-.42,1.41-.63,2.13-.63l-1.75-.97.89-1.61,9.6,5.29-.89,1.61-1.79-.98c.39.62.59,1.35.62,2.18s-.19,1.66-.65,2.48c-.47.85-1.11,1.51-1.91,1.96s-1.69.68-2.67.65c-.98-.02-1.95-.3-2.92-.83-.98-.54-1.73-1.21-2.26-2.02Zm4.62-6.7c-.7,0-1.33.16-1.89.5-.56.34-1,.81-1.33,1.4-.33.6-.49,1.22-.48,1.86,0,.64.2,1.26.58,1.85.38.59.93,1.08,1.65,1.48.74.41,1.46.61,2.16.62.7,0,1.33-.16,1.89-.49.56-.33,1-.8,1.33-1.39.33-.6.49-1.22.47-1.88-.01-.65-.21-1.28-.59-1.87s-.93-1.09-1.66-1.49c-.72-.4-1.43-.6-2.13-.6Z"/><path class="cls-1" d="m15.83,32.95c-.34-.9-.43-1.8-.26-2.7.17-.9.58-1.73,1.23-2.47.56-.64,1.23-1.11,2.01-1.41.78-.29,1.54-.38,2.27-.25l-4.37-3.81,1.21-1.39,11.16,9.72-1.21,1.39-1.55-1.35c.26.7.31,1.46.16,2.26-.15.81-.53,1.57-1.15,2.28-.64.73-1.4,1.24-2.28,1.53-.88.28-1.8.31-2.75.08-.95-.23-1.84-.7-2.68-1.43-.84-.74-1.44-1.55-1.78-2.45Zm5.93-5.58c-.68-.15-1.33-.12-1.95.09-.62.21-1.15.58-1.6,1.09-.45.51-.73,1.09-.86,1.72-.13.63-.07,1.28.18,1.93.24.65.68,1.25,1.3,1.79.63.55,1.29.91,1.98,1.06.69.16,1.34.13,1.95-.08.61-.21,1.14-.57,1.59-1.08.45-.51.73-1.09.86-1.73s.06-1.29-.18-1.95c-.25-.66-.68-1.26-1.31-1.8-.62-.54-1.28-.89-1.96-1.04Z"/><path class="cls-1" d="m35.87,19.19l-6.97,5.31c.71.82,1.51,1.27,2.42,1.34.9.08,1.74-.18,2.5-.76.63-.48,1.04-1.02,1.23-1.63.2-.61.19-1.22,0-1.84l1.56-1.19c.41,1.02.46,2.05.16,3.11-.3,1.06-.97,1.98-2.01,2.78-.83.63-1.71,1.01-2.64,1.13-.93.12-1.85-.01-2.74-.41-.89-.4-1.68-1.05-2.37-1.95-.69-.9-1.11-1.83-1.26-2.78-.16-.95-.05-1.86.33-2.72.37-.86.98-1.62,1.83-2.26.83-.63,1.7-1.01,2.61-1.13s1.78,0,2.6.37c.83.37,1.54.95,2.15,1.75.21.28.42.58.62.91Zm-3.8-1.22c-.55-.21-1.11-.26-1.68-.15-.58.11-1.12.36-1.63.75-.73.56-1.18,1.27-1.34,2.12-.16.86.04,1.73.6,2.61l5.5-4.19c-.42-.55-.9-.93-1.45-1.15Z"/><path class="cls-1" d="m43.73,9.38c1.1.36,1.98,1.23,2.64,2.6l2.82,5.81-1.62.79-2.71-5.58c-.48-.98-1.09-1.62-1.83-1.9s-1.54-.22-2.4.2c-.86.42-1.42,1.02-1.67,1.81-.25.79-.12,1.7.38,2.73l2.65,5.45-1.64.79-4.79-9.86,1.64-.79.68,1.4c.08-.66.33-1.26.75-1.81s.97-.98,1.64-1.31c1.2-.58,2.35-.69,3.44-.33Z"/><path class="cls-1" d="m51.28,16.98c-.3-.15-.51-.39-.62-.72-.11-.33-.09-.65.07-.95s.39-.51.72-.62c.32-.1.62-.08.92.08s.5.4.61.73c.11.33.09.64-.06.95-.15.3-.38.5-.7.61-.33.11-.65.09-.95-.07Z"/><path class="cls-1" d="m55.09,15.81c-.29-.17-.48-.43-.57-.76-.09-.33-.04-.65.13-.94s.43-.48.76-.57c.32-.08.63-.04.91.14.29.17.47.43.56.77s.05.65-.12.94c-.17.29-.41.48-.73.56-.34.09-.65.04-.94-.13Z"/><path class="cls-1" d="m58.99,14.89c-.28-.19-.45-.46-.51-.8s0-.65.19-.93c.19-.28.46-.45.8-.51.33-.06.63,0,.9.2.27.19.44.46.5.8s0,.65-.18.93c-.19.28-.44.45-.77.51-.34.06-.65,0-.93-.19Z"/></svg>