<?xml version="1.0" encoding="UTF-8"?><svg id="Layer_1" xmlns="http://www.w3.org/2000/svg" viewBox="0 0 146.7 145.97"><defs><style>.cls-1{fill:#2c064b;}</style></defs><path class="cls-1" d="m76.72,11.69l4.54.28-.09,1.38-6.23-.39.81-12.96,1.69.11-.72,11.58Z"/><path class="cls-1" d="m93.55,5.48l-2.23,9.96-1.65-.37.33-1.47c-.43.44-.96.74-1.58.89-.63.16-1.28.16-1.96,0-.78-.17-1.44-.49-1.98-.95-.55-.46-.93-1.05-1.14-1.77-.21-.72-.22-1.54-.01-2.47l1.31-5.83,1.64.37-1.26,5.62c-.22.98-.14,1.79.24,2.43.38.64,1,1.05,1.86,1.25.88.2,1.64.08,2.27-.35.63-.43,1.06-1.17,1.3-2.21l1.23-5.47,1.65.37Z"/><path class="cls-1" d="m98.69,7.36l-3.52,9.58-1.59-.58,3.52-9.58,1.59.58Zm-.85-2.44c-.13-.29-.14-.58-.03-.89.11-.3.31-.52.6-.65.29-.13.58-.14.89-.03.29.11.5.3.63.59.13.28.13.58.02.88s-.31.52-.59.66c-.28.13-.57.15-.86.04-.3-.11-.52-.31-.65-.6Z"/><path class="cls-1" d="m99.02,18.29c-.43-.52-.71-1.07-.81-1.66-.11-.59-.04-1.17.21-1.74l1.56.79c-.18.48-.16.96.08,1.44.24.48.67.88,1.29,1.19.58.29,1.1.39,1.56.3.46-.09.79-.33.99-.71.2-.4.17-.79-.08-1.16-.26-.37-.71-.84-1.36-1.4-.59-.52-1.05-.98-1.38-1.37-.33-.4-.56-.85-.69-1.37-.12-.51-.04-1.07.26-1.65.23-.47.59-.82,1.06-1.07s1.02-.36,1.65-.33c.62.03,1.26.21,1.92.54,1.01.51,1.7,1.17,2.06,2,.37.82.35,1.69-.06,2.6l-1.51-.76c.21-.49.21-.97,0-1.44-.21-.46-.6-.84-1.19-1.14-.54-.27-1.04-.38-1.47-.3-.44.07-.75.29-.94.67-.15.3-.18.6-.08.89s.26.57.5.83.58.6,1.03,1.01c.57.51,1.01.95,1.33,1.33.32.38.55.81.67,1.3.12.49.05,1.02-.22,1.58-.25.5-.62.88-1.09,1.14-.48.26-1.03.38-1.65.35s-1.26-.2-1.91-.53c-.7-.35-1.27-.79-1.7-1.3Z"/><path class="cls-1" d="m112.42,16.1l-3.38,4.98c-.28.41-.39.76-.33,1.05.06.29.3.58.74.87l1.03.7-.81,1.19-1.26-.86c-.78-.53-1.25-1.11-1.39-1.73-.15-.62.06-1.35.62-2.17l3.38-4.98-1.09-.74.79-1.16,1.09.74,1.44-2.13,1.4.95-1.44,2.13,2.2,1.5-.79,1.16-2.2-1.5Z"/><path class="cls-1" d="m120.84,28.73l-6.02-5.51c-.63.78-.91,1.6-.83,2.44.08.84.45,1.56,1.11,2.17.54.49,1.11.78,1.7.86.59.08,1.15-.02,1.69-.31l1.35,1.23c-.86.54-1.81.76-2.83.66s-1.98-.56-2.88-1.38c-.71-.65-1.21-1.4-1.48-2.24-.27-.84-.3-1.7-.08-2.58s.69-1.72,1.4-2.5c.71-.78,1.49-1.32,2.34-1.62s1.7-.35,2.55-.15c.85.2,1.65.63,2.38,1.3.71.65,1.21,1.39,1.47,2.2.27.81.3,1.63.1,2.45-.2.82-.62,1.57-1.24,2.26-.22.24-.46.48-.73.72Zm.49-3.68c.1-.54.06-1.06-.14-1.57-.2-.51-.52-.97-.96-1.37-.63-.58-1.36-.87-2.17-.87-.81,0-1.58.32-2.3.98l4.76,4.35c.44-.48.71-.98.81-1.52Z"/><path class="cls-1" d="m128.5,29.55c.6.22,1.15.64,1.65,1.26l-1.36,1.11-.28-.35c-1.2-1.47-2.6-1.56-4.2-.25l-4.3,3.51-1.07-1.31,7.91-6.45,1.07,1.31-1.28,1.05c.64-.14,1.26-.09,1.86.13Z"/><path class="cls-1" d="m131.62,44.21l-4.18-7.01c-.83.57-1.33,1.27-1.49,2.1-.16.83-.02,1.63.44,2.39.38.63.83,1.07,1.38,1.31.54.25,1.11.31,1.71.19l.94,1.57c-.98.27-1.95.21-2.9-.18-.95-.39-1.73-1.1-2.36-2.15-.5-.83-.75-1.69-.77-2.57-.02-.88.2-1.71.67-2.49.46-.78,1.15-1.45,2.06-1.99.91-.54,1.81-.83,2.71-.88.9-.04,1.73.15,2.49.59.76.44,1.39,1.08,1.9,1.93.5.83.75,1.68.77,2.53s-.18,1.65-.61,2.37c-.43.73-1.04,1.33-1.84,1.8-.28.17-.58.32-.91.48Zm1.53-3.39c.25-.48.36-1,.31-1.54-.04-.55-.22-1.07-.52-1.59-.44-.74-1.05-1.22-1.83-1.46-.78-.24-1.61-.14-2.48.28l3.31,5.53c.55-.33.96-.74,1.21-1.22Z"/><path class="cls-1" d="m139.95,52.39c-.44.98-1.33,1.72-2.65,2.2l-5.65,2.07-.58-1.57,5.42-1.99c.96-.35,1.6-.86,1.93-1.52.33-.66.35-1.41.04-2.24-.31-.84-.82-1.41-1.52-1.71-.71-.3-1.56-.27-2.56.1l-5.3,1.95-.58-1.59,9.58-3.52.58,1.59-1.36.5c.61.13,1.14.42,1.61.87.47.44.82.99,1.06,1.65.43,1.17.42,2.24-.02,3.22Z"/><path class="cls-1" d="m132.23,58.69c.17-.27.41-.44.72-.51s.61-.02.87.14.44.41.51.72c.07.3.02.58-.15.85-.17.26-.41.43-.73.5-.32.07-.61.03-.87-.13-.27-.16-.43-.39-.5-.7-.07-.31-.02-.61.14-.87Z"/><path class="cls-1" d="m133,62.34c.18-.26.44-.41.75-.46.32-.05.61.01.86.2.26.18.41.44.46.75.05.31-.02.58-.2.84s-.44.4-.76.46-.61-.01-.86-.19-.41-.42-.46-.73c-.05-.32.01-.61.2-.86Z"/><path class="cls-1" d="m133.55,66.02c.2-.25.46-.38.78-.42.32-.03.6.05.85.25.25.2.38.46.42.78.03.31-.05.58-.25.82-.2.24-.46.38-.78.41-.32.03-.6-.05-.85-.24s-.38-.45-.41-.75c-.03-.32.05-.6.25-.85Z"/><path class="cls-1" d="m135.01,76.44l-.32,4.54-1.38-.1.43-6.23,12.95.9-.12,1.69-11.58-.81Z"/><path class="cls-1" d="m141.09,93.31l-9.95-2.3.38-1.65,1.47.34c-.44-.43-.73-.96-.88-1.59-.15-.63-.15-1.28,0-1.96.18-.77.5-1.43.96-1.98s1.06-.92,1.78-1.13c.72-.21,1.55-.21,2.47,0l5.83,1.35-.38,1.63-5.61-1.3c-.98-.23-1.79-.15-2.43.22-.64.37-1.06.99-1.26,1.85-.2.88-.09,1.64.33,2.28.43.63,1.16,1.07,2.2,1.31l5.46,1.26-.38,1.65Z"/><path class="cls-1" d="m139.17,98.46l-9.56-3.59.6-1.59,9.56,3.59-.6,1.59Zm2.44-.83c.29-.13.58-.14.89-.03.3.11.52.31.65.6s.14.58.03.89c-.11.29-.31.5-.59.62-.29.12-.58.13-.88.02-.3-.11-.52-.31-.65-.59s-.14-.57-.04-.86c.11-.3.31-.52.6-.65Z"/><path class="cls-1" d="m128.24,98.69c.52-.43,1.08-.7,1.67-.8.59-.1,1.17-.03,1.74.22l-.8,1.56c-.48-.19-.96-.17-1.44.07-.48.23-.88.66-1.2,1.28-.29.58-.4,1.09-.31,1.56.08.46.32.79.71.99.4.2.78.18,1.16-.08.38-.25.85-.71,1.41-1.35.52-.58.98-1.04,1.38-1.37.4-.33.86-.56,1.37-.68s1.07-.03,1.65.27c.46.24.82.59,1.06,1.07.25.47.35,1.02.32,1.65-.03.62-.22,1.26-.55,1.92-.52,1.01-1.19,1.69-2.01,2.05-.83.36-1.69.33-2.6-.07l.77-1.51c.49.21.97.21,1.44.01s.85-.59,1.15-1.18c.28-.54.38-1.03.31-1.47-.07-.44-.29-.76-.67-.95-.3-.15-.59-.18-.89-.09-.29.09-.57.26-.84.49-.27.23-.6.57-1.01,1.02-.51.56-.96,1-1.34,1.32-.38.32-.82.54-1.31.66-.49.12-1.02.04-1.58-.23-.5-.25-.87-.62-1.13-1.1-.26-.48-.37-1.03-.34-1.65s.21-1.25.55-1.91c.36-.7.79-1.26,1.32-1.69Z"/><path class="cls-1" d="m130.34,112.11l-4.95-3.42c-.41-.28-.76-.39-1.05-.34-.29.06-.58.3-.88.73l-.71,1.03-1.18-.81.87-1.26c.54-.78,1.12-1.24,1.74-1.38s1.35.07,2.17.63l4.95,3.42.75-1.09,1.15.79-.75,1.09,2.12,1.46-.96,1.4-2.12-1.46-1.51,2.19-1.15-.79,1.51-2.19Z"/><path class="cls-1" d="m117.63,120.46l5.55-5.98c-.78-.64-1.59-.92-2.43-.84-.84.07-1.57.44-2.17,1.1-.5.54-.79,1.1-.87,1.69-.08.59.02,1.16.3,1.69l-1.24,1.34c-.53-.87-.75-1.81-.64-2.83.11-1.02.57-1.97,1.4-2.87.66-.71,1.41-1.2,2.25-1.46.84-.26,1.7-.28,2.58-.06s1.71.7,2.48,1.42,1.31,1.5,1.6,2.35c.3.85.34,1.7.13,2.55-.21.85-.65,1.64-1.32,2.37-.66.71-1.4,1.19-2.21,1.45-.82.26-1.63.29-2.45.08s-1.57-.63-2.25-1.26c-.24-.22-.47-.47-.71-.74Zm3.68.51c.54.11,1.06.06,1.57-.13.51-.19.97-.51,1.38-.95.58-.63.88-1.35.89-2.16,0-.81-.31-1.58-.96-2.3l-4.38,4.72c.47.44.98.71,1.51.82Z"/><path class="cls-1" d="m116.77,128.09c-.23.6-.65,1.15-1.27,1.64l-1.1-1.36.35-.28c1.48-1.19,1.58-2.59.28-4.2l-3.48-4.33,1.32-1.06,6.4,7.96-1.32,1.06-1.04-1.29c.13.64.09,1.26-.14,1.86Z"/><path class="cls-1" d="m102.1,131.11l7.04-4.13c-.56-.84-1.26-1.34-2.09-1.51-.83-.17-1.63-.03-2.4.42-.63.37-1.07.83-1.32,1.37-.25.54-.32,1.11-.2,1.7l-1.57.92c-.26-.98-.19-1.95.2-2.89.39-.95,1.12-1.73,2.17-2.34.83-.49,1.69-.74,2.57-.75.88-.01,1.71.22,2.49.69.78.47,1.44,1.16,1.97,2.07.53.91.82,1.81.86,2.71.04.9-.16,1.73-.6,2.48s-1.09,1.39-1.95,1.89c-.83.49-1.68.74-2.54.76-.86.01-1.65-.2-2.37-.63-.72-.43-1.32-1.05-1.79-1.85-.16-.28-.32-.58-.47-.91Zm3.37,1.55c.48.26,1,.37,1.54.33s1.08-.21,1.59-.51c.74-.43,1.23-1.04,1.47-1.82.24-.78.16-1.6-.26-2.48l-5.56,3.27c.33.56.73.96,1.21,1.22Z"/><path class="cls-1" d="m93.87,139.38c-.98-.45-1.71-1.34-2.19-2.67l-2.03-5.66,1.58-.57,1.95,5.44c.34.96.85,1.61,1.51,1.94.66.34,1.41.36,2.24.06.84-.3,1.42-.81,1.72-1.51.31-.7.28-1.56-.08-2.56l-1.91-5.31,1.6-.57,3.45,9.61-1.6.57-.49-1.37c-.14.6-.43,1.14-.88,1.6-.45.46-1,.81-1.65,1.05-1.17.42-2.24.41-3.22-.04Z"/><path class="cls-1" d="m87.62,131.62c.27.17.44.41.5.73.07.32.02.61-.15.87s-.41.43-.73.5c-.3.07-.58.02-.85-.16-.26-.17-.43-.41-.5-.73-.07-.32-.02-.61.14-.87.16-.27.4-.43.7-.5.32-.07.61-.02.87.15Z"/><path class="cls-1" d="m83.96,132.36c.26.19.41.44.46.76.05.32-.02.61-.2.86-.19.25-.44.41-.76.46-.31.05-.58-.02-.83-.21-.25-.19-.4-.44-.45-.76-.05-.32.01-.61.19-.86.18-.25.42-.41.73-.45.32-.05.61.02.86.2Z"/><path class="cls-1" d="m80.27,132.88c.24.2.38.46.41.78.03.32-.05.6-.26.85-.2.24-.46.38-.78.41-.31.03-.58-.06-.82-.26-.24-.2-.37-.46-.4-.79s.05-.6.25-.85c.2-.24.45-.38.76-.41.32-.03.6.05.85.26Z"/><path class="cls-1" d="m69.84,134.27l-4.53-.35.11-1.37,6.22.48-1,12.95-1.69-.13.89-11.57Z"/><path class="cls-1" d="m52.94,140.24l2.37-9.93,1.65.39-.35,1.47c.44-.43.97-.72,1.6-.87s1.28-.14,1.96.02c.77.18,1.43.51,1.97.98.54.47.91,1.06,1.11,1.79s.2,1.55-.02,2.46l-1.39,5.82-1.63-.39,1.34-5.6c.23-.98.17-1.79-.2-2.43-.37-.64-.98-1.07-1.84-1.27-.88-.21-1.64-.11-2.28.32-.64.42-1.08,1.15-1.33,2.19l-1.3,5.45-1.65-.39Z"/><path class="cls-1" d="m48.6,140.72c.13.29.13.58.02.89-.12.3-.32.52-.61.65-.29.13-.58.13-.88.02-.29-.11-.5-.31-.62-.6-.12-.29-.13-.58-.01-.88.12-.3.31-.52.6-.65s.57-.14.86-.03c.3.12.52.32.65.61Zm-.82-2.45l3.66-9.53,1.58.61-3.66,9.53-1.58-.61Z"/><path class="cls-1" d="m47.63,127.34c.43.52.69,1.08.79,1.67.1.59.02,1.17-.23,1.74l-1.55-.81c.19-.47.17-.95-.06-1.44-.23-.49-.66-.89-1.27-1.21-.57-.3-1.09-.41-1.55-.33-.46.08-.79.31-.99.7-.21.4-.18.78.07,1.16.25.38.7.85,1.34,1.42.58.53,1.04.99,1.36,1.39.33.4.55.86.67,1.38.12.52.02,1.07-.28,1.65-.24.46-.6.82-1.08,1.06s-1.03.34-1.65.31c-.62-.04-1.26-.23-1.91-.56-1-.52-1.68-1.2-2.03-2.03-.35-.83-.32-1.69.09-2.6l1.5.78c-.21.49-.22.97-.02,1.44.2.47.59.85,1.17,1.16.54.28,1.03.39,1.47.32.44-.06.76-.28.95-.66.15-.3.19-.59.09-.89s-.25-.57-.49-.84-.57-.61-1.01-1.02c-.56-.51-1-.96-1.32-1.35-.32-.38-.54-.82-.65-1.31-.11-.49-.03-1.02.24-1.58.26-.5.63-.87,1.11-1.12.48-.25,1.03-.36,1.65-.33.62.04,1.25.22,1.9.56.69.36,1.25.8,1.68,1.33Z"/><path class="cls-1" d="m34.21,129.35l3.45-4.93c.29-.41.4-.75.34-1.04s-.3-.58-.72-.88l-1.02-.72.82-1.18,1.25.88c.77.54,1.23,1.12,1.37,1.75.14.63-.08,1.35-.65,2.16l-3.45,4.93,1.08.76-.8,1.14-1.08-.76-1.47,2.11-1.39-.97,1.47-2.11-2.18-1.53.8-1.14,2.18,1.53Z"/><path class="cls-1" d="m25.95,116.58l5.94,5.59c.64-.77.93-1.58.86-2.42-.07-.84-.43-1.57-1.08-2.18-.53-.5-1.1-.8-1.69-.88-.59-.09-1.15,0-1.69.29l-1.33-1.25c.87-.53,1.82-.73,2.83-.62s1.97.59,2.86,1.42c.71.66,1.19,1.42,1.45,2.26.26.84.27,1.7.04,2.58-.23.88-.71,1.71-1.43,2.48-.72.77-1.51,1.3-2.36,1.59-.85.29-1.7.33-2.55.12-.85-.21-1.64-.66-2.36-1.34-.71-.66-1.18-1.41-1.44-2.22-.25-.82-.27-1.63-.06-2.45.21-.81.64-1.56,1.28-2.24.22-.24.47-.47.74-.71Zm-.54,3.67c-.11.54-.07,1.06.12,1.57s.5.97.94,1.38c.62.59,1.34.89,2.16.9s1.58-.3,2.31-.95l-4.69-4.42c-.44.47-.72.97-.83,1.51Z"/><path class="cls-1" d="m18.32,115.67c-.6-.23-1.14-.66-1.64-1.28l1.37-1.09.28.35c1.18,1.49,2.58,1.59,4.19.31l4.35-3.45,1.05,1.33-8,6.34-1.05-1.33,1.3-1.03c-.64.13-1.26.08-1.86-.16Z"/><path class="cls-1" d="m15.4,100.96l4.08,7.06c.84-.56,1.35-1.25,1.52-2.07.18-.83.04-1.63-.41-2.4-.37-.63-.82-1.08-1.36-1.33-.54-.25-1.11-.32-1.7-.21l-.91-1.58c.99-.25,1.95-.18,2.89.22.94.4,1.72,1.13,2.33,2.18.48.84.73,1.7.74,2.58s-.23,1.71-.71,2.48c-.48.78-1.17,1.43-2.08,1.96s-1.82.81-2.72.84-1.73-.17-2.48-.62c-.75-.45-1.38-1.1-1.88-1.96-.49-.84-.73-1.69-.74-2.54,0-.86.21-1.64.65-2.36.44-.72,1.06-1.31,1.87-1.78.28-.16.58-.32.92-.46Zm-1.57,3.36c-.26.48-.37.99-.34,1.54.04.55.2,1.08.5,1.59.43.74,1.03,1.24,1.8,1.48.78.25,1.6.17,2.49-.24l-3.23-5.58c-.56.32-.97.73-1.23,1.21Z"/><path class="cls-1" d="m7.19,92.68c.45-.97,1.35-1.7,2.69-2.17l5.68-1.99.55,1.58-5.45,1.91c-.96.34-1.61.84-1.95,1.5s-.37,1.41-.07,2.24c.3.84.79,1.42,1.5,1.73.7.31,1.56.29,2.56-.06l5.33-1.87.56,1.6-9.63,3.38-.56-1.6,1.37-.48c-.6-.14-1.13-.44-1.6-.89-.46-.45-.81-1-1.04-1.66-.41-1.17-.39-2.25.06-3.22Z"/><path class="cls-1" d="m15,86.47c-.17.26-.42.43-.73.5-.32.07-.61.02-.87-.16-.27-.17-.43-.42-.5-.73-.07-.3-.01-.58.16-.84.17-.26.42-.42.73-.49.32-.07.61-.02.87.15.26.17.43.4.49.7.07.32.02.61-.16.87Z"/><path class="cls-1" d="m14.28,82.82c-.19.25-.44.41-.76.45s-.61-.02-.86-.21c-.25-.19-.41-.44-.45-.76-.05-.31.03-.58.21-.83.19-.25.44-.4.76-.44s.61.02.86.2c.25.18.4.43.45.73.05.32-.02.61-.21.86Z"/><path class="cls-1" d="m13.79,79.12c-.2.24-.47.38-.79.41-.32.03-.6-.06-.85-.26s-.38-.46-.41-.79c-.03-.31.06-.58.26-.82.2-.24.47-.37.79-.4.32-.03.6.06.85.25.24.2.38.45.4.76.03.32-.06.6-.26.85Z"/><path class="cls-1" d="m.1,67.94l13.76.78-.1,1.69-13.76-.78.1-1.69Z"/><path class="cls-1" d="m5.57,55.44l10.03,1.9-.31,1.67-1.48-.28c.45.42.77.93.95,1.55.18.62.2,1.27.08,1.96-.15.78-.44,1.45-.88,2.01-.44.56-1.02.96-1.73,1.2s-1.54.27-2.46.09l-5.88-1.11.31-1.65,5.66,1.07c.99.19,1.8.08,2.42-.32.62-.4,1.02-1.03,1.18-1.9.17-.89.03-1.64-.43-2.26-.45-.62-1.2-1.02-2.25-1.22l-5.51-1.04.31-1.67Z"/><path class="cls-1" d="m4.88,51.13c-.28.14-.58.16-.88.06-.31-.1-.53-.29-.67-.58s-.16-.58-.06-.88c.1-.29.29-.51.57-.65.28-.14.57-.15.88-.05.31.1.53.29.68.57s.17.56.07.86c-.1.31-.29.53-.58.67Zm2.41-.93l9.7,3.2-.53,1.61-9.7-3.2.53-1.61Z"/><path class="cls-1" d="m18.19,49.54c-.5.45-1.05.74-1.63.87-.58.13-1.17.08-1.75-.15l.73-1.59c.48.17.96.12,1.43-.13.47-.25.85-.7,1.15-1.33.27-.59.35-1.11.25-1.57s-.35-.78-.75-.96c-.41-.19-.79-.15-1.16.12-.36.27-.82.74-1.36,1.41-.5.6-.94,1.08-1.33,1.43-.39.35-.83.59-1.34.73-.51.14-1.06.07-1.66-.2-.47-.22-.84-.56-1.11-1.02-.26-.46-.39-1.01-.38-1.63,0-.62.17-1.27.47-1.94.47-1.03,1.12-1.74,1.93-2.13.81-.39,1.68-.4,2.6-.03l-.71,1.54c-.5-.19-.98-.17-1.44.05-.46.22-.82.63-1.1,1.23-.25.55-.34,1.05-.25,1.48.09.44.32.74.7.92.3.14.6.16.89.05s.56-.28.82-.53c.26-.24.58-.6.97-1.06.49-.58.92-1.04,1.28-1.38s.79-.57,1.28-.71c.49-.14,1.02-.08,1.58.17.51.23.9.59,1.17,1.06.28.47.41,1.01.41,1.63,0,.62-.16,1.26-.47,1.93-.33.71-.74,1.29-1.25,1.74Z"/><path class="cls-1" d="m15.56,36.21l5.09,3.21c.42.26.77.36,1.06.29s.57-.32.85-.77l.67-1.05,1.21.77-.82,1.29c-.5.8-1.07,1.28-1.69,1.45-.62.17-1.35-.01-2.19-.55l-5.09-3.21-.71,1.12-1.18-.75.71-1.12-2.17-1.37.91-1.43,2.17,1.37,1.42-2.25,1.18.75-1.42,2.25Z"/><path class="cls-1" d="m27.91,27.37l-5.31,6.2c.8.61,1.62.86,2.46.75.84-.11,1.55-.5,2.13-1.18.48-.56.75-1.13.8-1.73s-.06-1.15-.37-1.68l1.19-1.39c.57.85.82,1.78.75,2.8-.07,1.02-.49,2-1.29,2.92-.63.74-1.36,1.25-2.18,1.55-.83.3-1.69.35-2.58.16-.89-.19-1.74-.63-2.54-1.32-.8-.69-1.37-1.45-1.7-2.29-.33-.84-.41-1.69-.24-2.54.17-.86.58-1.67,1.23-2.42.63-.74,1.35-1.25,2.15-1.54.8-.29,1.62-.35,2.44-.18.82.17,1.59.56,2.3,1.17.25.21.49.45.74.71Zm-3.7-.37c-.54-.09-1.06-.02-1.56.19-.5.21-.95.55-1.34,1-.56.65-.82,1.38-.8,2.2.02.81.37,1.57,1.05,2.26l4.19-4.9c-.49-.42-1.01-.67-1.54-.76Z"/><path class="cls-1" d="m28.46,19.7c.2-.61.61-1.17,1.2-1.69l1.15,1.32-.34.29c-1.43,1.25-1.47,2.65-.11,4.2l3.65,4.18-1.28,1.11-6.71-7.69,1.28-1.12,1.09,1.25c-.16-.64-.14-1.26.07-1.86Z"/><path class="cls-1" d="m43.02,16.08l-6.86,4.42c.6.81,1.31,1.29,2.14,1.42s1.63-.04,2.38-.52c.62-.4,1.04-.87,1.27-1.42.23-.55.27-1.12.13-1.71l1.54-.99c.3.97.27,1.94-.08,2.9-.36.96-1.05,1.77-2.07,2.43-.81.52-1.66.81-2.54.86-.88.05-1.72-.15-2.51-.59-.8-.44-1.48-1.1-2.05-1.99s-.89-1.78-.97-2.68c-.08-.9.09-1.73.5-2.51.41-.77,1.03-1.43,1.87-1.97.82-.52,1.65-.81,2.51-.86.85-.05,1.65.13,2.39.53.74.4,1.36,1,1.86,1.78.17.27.34.57.51.89Zm-3.43-1.41c-.49-.24-1.01-.33-1.55-.26s-1.07.25-1.57.58c-.72.46-1.19,1.09-1.4,1.87-.21.79-.09,1.61.36,2.47l5.42-3.49c-.35-.54-.77-.93-1.26-1.17Z"/><path class="cls-1" d="m50.89,7.49c1,.41,1.76,1.27,2.29,2.58l2.26,5.58-1.55.63-2.17-5.35c-.38-.94-.91-1.57-1.59-1.88s-1.42-.3-2.24.03c-.83.34-1.38.86-1.66,1.58-.28.72-.22,1.57.18,2.56l2.12,5.23-1.57.64-3.84-9.46,1.57-.64.55,1.35c.12-.61.39-1.15.81-1.64s.96-.85,1.61-1.12c1.15-.47,2.22-.5,3.22-.09Z"/><path class="cls-1" d="m57.46,14.99c-.27-.16-.45-.39-.54-.71-.08-.31-.04-.6.11-.88.16-.27.39-.45.71-.53.3-.08.58-.04.85.12s.44.4.53.71c.08.31.05.6-.1.88-.15.27-.38.45-.68.53-.31.08-.6.04-.88-.11Z"/><path class="cls-1" d="m61.07,14.1c-.26-.18-.43-.42-.49-.74s0-.61.17-.87c.18-.26.42-.43.74-.49.3-.06.58,0,.84.17.26.18.42.42.48.74.06.32,0,.61-.16.87s-.41.42-.71.48c-.32.06-.61,0-.87-.17Z"/><path class="cls-1" d="m64.73,13.44c-.25-.19-.4-.45-.44-.77-.04-.32.03-.61.22-.86s.45-.4.77-.44c.31-.04.58.03.83.23.25.19.39.45.43.77.04.32-.03.61-.21.86-.19.25-.43.4-.74.44-.32.04-.61-.03-.86-.22Z"/></svg>