<?xml version="1.0" encoding="UTF-8"?><svg id="Layer_1" xmlns="http://www.w3.org/2000/svg" viewBox="0 0 147.11 146.2"><defs><style>.cls-1{fill:#31014e;}</style></defs><path class="cls-1" d="m76.61,11.57l4.52.28-.08,1.36-6.21-.39.8-12.83,1.69.1-.71,11.47Z"/><path class="cls-1" d="m93.34,5.4l-2.17,9.87-1.65-.36.32-1.46c-.43.44-.95.73-1.58.89-.62.16-1.28.16-1.95.01-.77-.17-1.43-.48-1.98-.94s-.93-1.04-1.15-1.75c-.22-.71-.22-1.53-.02-2.44l1.27-5.78,1.63.36-1.22,5.57c-.21.97-.13,1.77.25,2.41.38.63,1,1.04,1.86,1.23.88.19,1.64.08,2.27-.35.63-.43,1.05-1.16,1.28-2.19l1.19-5.42,1.65.36Z"/><path class="cls-1" d="m98.48,7.25l-3.43,9.51-1.59-.57,3.43-9.51,1.59.57Zm-.87-2.41c-.13-.28-.15-.58-.04-.88s.3-.52.59-.65c.28-.13.58-.14.88-.04.29.1.5.3.63.58s.14.57.03.87-.3.52-.58.65c-.28.13-.56.15-.85.04-.3-.11-.52-.31-.66-.59Z"/><path class="cls-1" d="m98.89,18.07c-.44-.51-.71-1.06-.83-1.64-.11-.58-.05-1.16.19-1.73l1.57.77c-.18.47-.15.95.1,1.42.24.48.67.87,1.3,1.17.58.28,1.1.38,1.55.29.46-.09.78-.33.97-.71.2-.4.16-.78-.1-1.15-.26-.37-.72-.83-1.37-1.38-.59-.51-1.06-.96-1.39-1.35-.34-.39-.57-.84-.7-1.35-.13-.51-.05-1.06.24-1.64.23-.46.58-.82,1.04-1.07.47-.25,1.01-.36,1.64-.34.62.03,1.26.2,1.92.52,1.01.5,1.7,1.15,2.08,1.97.37.81.36,1.67-.03,2.58l-1.52-.75c.2-.49.2-.97-.01-1.42-.21-.46-.61-.83-1.2-1.12-.54-.27-1.04-.37-1.47-.29-.44.07-.75.3-.93.67-.15.3-.17.59-.07.88.1.29.27.56.5.82s.58.59,1.03.99c.57.5,1.02.94,1.34,1.31s.55.8.68,1.29c.12.49.06,1.01-.2,1.57-.25.5-.6.87-1.08,1.13s-1.02.38-1.64.36c-.62-.02-1.25-.2-1.91-.52-.7-.34-1.27-.77-1.71-1.28Z"/><path class="cls-1" d="m112.19,15.81l-3.3,4.96c-.27.41-.38.76-.31,1.04.06.29.31.57.74.86l1.04.69-.79,1.18-1.27-.84c-.78-.52-1.25-1.09-1.41-1.71-.15-.62.04-1.34.59-2.16l3.3-4.96-1.1-.73.77-1.15,1.1.73,1.41-2.12,1.41.94-1.41,2.12,2.21,1.47-.77,1.15-2.21-1.47Z"/><path class="cls-1" d="m120.74,28.28l-6.07-5.42c-.62.78-.88,1.59-.79,2.43s.47,1.55,1.14,2.14c.54.49,1.11.77,1.7.84.59.07,1.15-.03,1.67-.32l1.36,1.21c-.85.54-1.78.77-2.8.68-1.01-.09-1.98-.54-2.88-1.35-.72-.64-1.22-1.38-1.5-2.21s-.32-1.68-.11-2.56c.21-.88.66-1.71,1.35-2.49.7-.78,1.46-1.32,2.3-1.63.84-.31,1.68-.36,2.53-.17.85.19,1.65.62,2.38,1.28.72.64,1.22,1.37,1.5,2.18.28.81.32,1.62.13,2.43-.19.81-.59,1.56-1.2,2.25-.21.24-.45.48-.72.72Zm.43-3.66c.09-.53.04-1.05-.17-1.56s-.53-.96-.97-1.35c-.64-.57-1.36-.85-2.17-.85-.81,0-1.56.33-2.27.99l4.79,4.28c.43-.48.69-.98.78-1.52Z"/><path class="cls-1" d="m128.35,29.02c.6.22,1.15.63,1.66,1.24l-1.33,1.11-.29-.34c-1.22-1.45-2.61-1.52-4.17-.21l-4.21,3.53-1.09-1.3,7.75-6.49,1.09,1.3-1.26,1.05c.63-.14,1.25-.11,1.85.11Z"/><path class="cls-1" d="m131.69,43.56l-4.27-6.93c-.82.57-1.3,1.28-1.45,2.1s.01,1.62.48,2.38c.38.62.85,1.05,1.39,1.29.54.24,1.11.29,1.69.17l.96,1.55c-.97.28-1.93.23-2.88-.15-.95-.38-1.74-1.08-2.38-2.11-.51-.82-.78-1.67-.81-2.55-.03-.87.17-1.7.62-2.49.45-.79,1.12-1.45,2.01-2,.89-.55,1.78-.85,2.67-.9.89-.05,1.72.13,2.48.56s1.4,1.06,1.92,1.9c.51.82.78,1.66.81,2.51s-.15,1.64-.57,2.37c-.41.73-1.01,1.33-1.79,1.82-.27.17-.57.33-.89.48Zm1.46-3.39c.24-.48.34-1,.29-1.54-.05-.54-.23-1.07-.55-1.57-.45-.73-1.06-1.21-1.84-1.43-.78-.23-1.59-.13-2.46.3l3.37,5.47c.54-.34.94-.75,1.18-1.23Z"/><path class="cls-1" d="m140.07,51.59c-.42.98-1.28,1.73-2.59,2.23l-5.56,2.13-.6-1.56,5.34-2.05c.94-.36,1.57-.88,1.89-1.54.32-.67.32-1.41,0-2.23-.32-.83-.83-1.4-1.54-1.69-.71-.29-1.55-.25-2.54.13l-5.22,2-.61-1.58,9.44-3.62.61,1.58-1.34.52c.6.13,1.14.41,1.61.85s.83.98,1.08,1.63c.44,1.16.46,2.23.04,3.21Z"/><path class="cls-1" d="m132.53,57.98c.16-.27.4-.44.71-.52s.6-.03.87.13c.27.16.44.4.52.72.07.3.03.58-.13.85-.16.26-.4.43-.71.51-.31.08-.6.03-.87-.12-.27-.16-.44-.39-.51-.69-.08-.31-.03-.6.13-.87Z"/><path class="cls-1" d="m133.35,61.6c.18-.26.42-.42.74-.47s.6,0,.86.19c.26.18.41.43.47.75.06.3,0,.58-.19.84s-.43.41-.74.46-.6,0-.86-.18c-.26-.17-.41-.41-.47-.72-.06-.32,0-.6.18-.86Z"/><path class="cls-1" d="m133.95,65.26c.19-.25.45-.39.77-.43.32-.04.6.04.84.24.25.2.39.45.42.77.04.31-.04.58-.24.82-.2.24-.45.38-.77.42s-.6-.04-.84-.23c-.25-.19-.39-.44-.42-.75-.04-.32.04-.6.24-.85Z"/><path class="cls-1" d="m135.55,75.61l-.25,4.53-1.36-.07.34-6.21,12.83.71-.09,1.69-11.47-.63Z"/><path class="cls-1" d="m141.79,92.35l-9.88-2.14.36-1.65,1.46.32c-.44-.42-.74-.95-.9-1.57-.16-.62-.17-1.28-.02-1.95.17-.78.48-1.44.93-1.99s1.04-.93,1.75-1.15c.71-.22,1.53-.23,2.44-.03l5.79,1.25-.35,1.63-5.57-1.21c-.97-.21-1.78-.12-2.41.26-.63.38-1.04,1-1.22,1.86-.19.88-.07,1.64.36,2.26.43.63,1.16,1.05,2.2,1.27l5.43,1.17-.36,1.65Z"/><path class="cls-1" d="m139.96,97.49l-9.51-3.41.57-1.59,9.51,3.41-.57,1.59Zm2.41-.87c.28-.14.58-.15.88-.04s.52.3.65.59.14.58.04.88c-.1.29-.3.5-.58.63s-.57.14-.87.03c-.3-.11-.52-.3-.65-.58-.14-.28-.15-.56-.05-.86.11-.3.3-.52.59-.66Z"/><path class="cls-1" d="m129.14,97.91c.51-.44,1.06-.71,1.64-.83.58-.11,1.16-.05,1.73.19l-.77,1.57c-.47-.18-.95-.15-1.42.09s-.87.67-1.17,1.3c-.28.58-.38,1.1-.29,1.55.09.46.33.78.71.97.4.2.78.16,1.15-.1.37-.26.83-.72,1.38-1.37.51-.59.96-1.05,1.36-1.39.39-.34.84-.57,1.35-.7.51-.13,1.06-.05,1.64.24.46.23.82.58,1.07,1.04s.36,1.01.33,1.64c-.03.62-.2,1.26-.52,1.92-.5,1.01-1.15,1.7-1.97,2.07-.81.37-1.67.36-2.58-.03l.75-1.52c.49.2.96.2,1.42-.01.46-.21.83-.61,1.12-1.2.27-.54.37-1.04.29-1.47-.07-.44-.3-.75-.67-.93-.3-.15-.59-.17-.88-.07-.29.1-.56.27-.83.5-.26.24-.59.58-.99,1.03-.5.57-.94,1.02-1.31,1.34-.37.33-.8.55-1.29.68-.49.12-1.01.06-1.57-.2-.5-.25-.88-.6-1.13-1.08-.26-.47-.38-1.02-.36-1.63.02-.62.2-1.25.52-1.91.34-.7.77-1.27,1.28-1.71Z"/><path class="cls-1" d="m131.36,111.24l-4.95-3.31c-.41-.27-.76-.38-1.04-.32-.29.06-.57.31-.86.74l-.69,1.04-1.18-.79.85-1.27c.52-.78,1.09-1.25,1.71-1.4s1.34.04,2.16.59l4.96,3.31.73-1.1,1.15.77-.73,1.1,2.12,1.41-.94,1.41-2.12-1.41-1.48,2.21-1.15-.77,1.47-2.21Z"/><path class="cls-1" d="m118.88,119.75l5.44-6.06c-.78-.62-1.59-.88-2.42-.79-.83.09-1.55.47-2.15,1.13-.49.54-.77,1.11-.84,1.7-.08.59.03,1.15.32,1.67l-1.22,1.36c-.54-.85-.76-1.79-.67-2.8.09-1.01.55-1.97,1.36-2.88.65-.72,1.38-1.22,2.21-1.5s1.68-.32,2.56-.11c.88.21,1.71.66,2.49,1.36.78.7,1.32,1.47,1.62,2.31.3.84.36,1.68.17,2.53-.19.85-.62,1.64-1.28,2.38-.65.72-1.37,1.21-2.18,1.49-.81.27-1.62.32-2.43.13s-1.56-.59-2.25-1.21c-.24-.21-.48-.45-.72-.72Zm3.66.44c.53.1,1.05.04,1.56-.16.51-.2.96-.53,1.35-.97.57-.64.86-1.36.86-2.17,0-.81-.33-1.57-.99-2.27l-4.29,4.78c.48.43.98.69,1.51.79Z"/><path class="cls-1" d="m118.12,127.35c-.22.6-.63,1.15-1.24,1.66l-1.11-1.33.34-.29c1.46-1.21,1.53-2.6.22-4.17l-3.52-4.22,1.3-1.08,6.47,7.76-1.3,1.08-1.05-1.26c.14.63.1,1.25-.12,1.85Z"/><path class="cls-1" d="m103.58,130.67l6.93-4.26c-.57-.82-1.27-1.3-2.1-1.45-.83-.15-1.62,0-2.38.48-.62.38-1.05.85-1.29,1.39-.24.54-.3,1.11-.17,1.7l-1.55.95c-.28-.97-.23-1.93.15-2.88.38-.95,1.08-1.74,2.12-2.37.82-.51,1.67-.78,2.55-.81.88-.03,1.7.18,2.49.62.79.45,1.45,1.12,2,2.01s.85,1.78.9,2.67-.13,1.72-.56,2.48c-.43.76-1.06,1.4-1.91,1.92-.82.51-1.66.78-2.51.81-.85.03-1.64-.16-2.37-.57-.73-.41-1.33-1.01-1.81-1.8-.17-.27-.33-.57-.48-.89Zm3.38,1.46c.48.24,1,.34,1.54.29.54-.05,1.07-.23,1.57-.54.73-.45,1.21-1.06,1.43-1.83s.13-1.59-.3-2.46l-5.48,3.37c.33.54.74.94,1.23,1.18Z"/><path class="cls-1" d="m95.58,139.05c-.98-.42-1.73-1.28-2.23-2.59l-2.14-5.56,1.56-.6,2.06,5.33c.36.94.88,1.57,1.54,1.89.67.32,1.41.32,2.23,0,.83-.32,1.39-.83,1.69-1.54.29-.71.25-1.55-.13-2.54l-2.01-5.21,1.58-.61,3.63,9.43-1.58.61-.52-1.34c-.13.6-.41,1.14-.84,1.61s-.98.83-1.62,1.08c-1.16.45-2.23.46-3.21.04Z"/><path class="cls-1" d="m89.17,131.53c.27.16.44.4.52.71.08.31.03.6-.13.87-.16.27-.4.44-.71.52-.3.07-.58.03-.85-.13-.26-.16-.43-.4-.51-.71-.08-.31-.04-.6.12-.87s.39-.44.69-.51c.31-.08.6-.04.87.12Z"/><path class="cls-1" d="m85.55,132.36c.26.18.42.42.48.74.06.31,0,.6-.18.86-.18.26-.43.42-.74.48-.3.06-.58,0-.84-.18-.25-.18-.41-.42-.47-.74-.06-.31,0-.6.17-.86.17-.26.41-.41.72-.47.32-.06.61,0,.86.18Z"/><path class="cls-1" d="m81.87,132.97c.25.19.39.45.43.76.04.32-.04.6-.23.85-.19.25-.45.39-.77.43-.31.04-.58-.04-.82-.23s-.38-.45-.42-.77c-.04-.32.04-.6.22-.84.19-.25.44-.39.74-.43.32-.04.6.04.85.23Z"/><path class="cls-1" d="m71.51,134.64l-4.53-.21.06-1.36,6.22.29-.6,12.84-1.69-.08.53-11.48Z"/><path class="cls-1" d="m54.85,141.07l2.02-9.9,1.66.34-.3,1.46c.42-.44.94-.75,1.56-.92s1.27-.18,1.95-.04c.78.16,1.44.46,2,.91s.94,1.02,1.17,1.74c.23.71.25,1.52.06,2.44l-1.18,5.8-1.64-.33,1.14-5.58c.2-.98.1-1.78-.29-2.4-.39-.62-1.02-1.03-1.88-1.2-.89-.18-1.64-.05-2.26.39-.62.44-1.04,1.17-1.25,2.21l-1.11,5.44-1.66-.34Z"/><path class="cls-1" d="m50.59,141.71c.14.28.16.57.05.88s-.3.52-.58.66c-.28.14-.58.15-.88.05-.29-.1-.51-.29-.64-.57-.13-.28-.15-.57-.04-.87.1-.3.29-.52.57-.66.28-.14.56-.16.85-.06.31.1.53.3.67.58Zm-.91-2.4l3.28-9.56,1.6.55-3.28,9.56-1.6-.55Z"/><path class="cls-1" d="m49.12,128.5c.45.5.73,1.05.85,1.63.12.58.07,1.16-.16,1.73l-1.58-.75c.17-.48.13-.95-.12-1.42s-.69-.86-1.31-1.15c-.58-.28-1.1-.37-1.56-.27-.46.1-.78.34-.96.73-.19.4-.15.78.12,1.15.27.36.73.82,1.39,1.36.6.5,1.07.95,1.41,1.33.34.39.58.83.72,1.34s.07,1.05-.21,1.64c-.22.47-.56.83-1.03,1.08-.46.26-1.01.38-1.63.36-.62-.02-1.26-.18-1.93-.49-1.02-.48-1.72-1.13-2.11-1.94-.38-.81-.39-1.67-.01-2.58l1.53.72c-.19.49-.18.97.04,1.42s.62.82,1.21,1.11c.55.26,1.04.35,1.48.27.44-.08.74-.31.92-.69.14-.3.16-.59.06-.88-.1-.29-.28-.56-.52-.82-.24-.26-.59-.58-1.05-.98-.58-.49-1.03-.92-1.36-1.29-.33-.37-.57-.79-.7-1.28-.13-.48-.07-1.01.18-1.57.24-.5.59-.88,1.06-1.15.47-.27,1.01-.39,1.63-.38.62.01,1.26.18,1.92.49.71.33,1.28.75,1.73,1.26Z"/><path class="cls-1" d="m35.85,130.96l3.22-5.01c.27-.41.37-.76.3-1.05-.07-.28-.32-.57-.76-.85l-1.05-.67.77-1.2,1.28.82c.79.51,1.27,1.07,1.43,1.69.16.62-.02,1.34-.55,2.17l-3.22,5.01,1.11.71-.75,1.16-1.11-.71-1.38,2.14-1.42-.91,1.38-2.14-2.24-1.44.75-1.16,2.24,1.44Z"/><path class="cls-1" d="m27.1,118.62l6.15,5.33c.61-.79.85-1.61.75-2.44-.11-.83-.5-1.54-1.17-2.12-.55-.48-1.12-.75-1.72-.81-.59-.06-1.15.05-1.67.35l-1.38-1.19c.84-.56,1.77-.8,2.79-.72,1.02.08,1.98.51,2.9,1.3.73.63,1.24,1.36,1.54,2.18.29.82.35,1.68.15,2.56-.19.88-.63,1.72-1.31,2.51s-1.44,1.34-2.28,1.66c-.83.32-1.68.39-2.53.21-.85-.18-1.65-.59-2.4-1.24-.73-.63-1.24-1.35-1.53-2.15-.29-.8-.34-1.61-.17-2.43.17-.82.56-1.57,1.17-2.27.21-.24.44-.49.71-.73Zm-.37,3.67c-.09.54-.02,1.05.19,1.56.21.5.54.95.99,1.34.65.56,1.37.83,2.18.81.81-.02,1.56-.36,2.25-1.03l-4.86-4.21c-.42.48-.67.99-.76,1.53Z"/><path class="cls-1" d="m19.48,118c-.6-.21-1.16-.61-1.68-1.21l1.31-1.13.29.34c1.24,1.43,2.63,1.48,4.18.15l4.16-3.6,1.11,1.28-7.65,6.61-1.11-1.28,1.24-1.07c-.63.15-1.25.12-1.85-.08Z"/><path class="cls-1" d="m15.91,103.52l4.38,6.86c.81-.59,1.28-1.3,1.41-2.12.14-.83-.04-1.62-.52-2.37-.39-.62-.86-1.04-1.41-1.27s-1.11-.28-1.7-.14l-.98-1.54c.97-.29,1.92-.26,2.88.1.95.36,1.76,1.05,2.41,2.08.52.81.8,1.66.85,2.53.05.87-.15,1.71-.58,2.5-.44.79-1.09,1.47-1.97,2.03s-1.77.88-2.66.95-1.72-.1-2.49-.52c-.77-.41-1.42-1.04-1.95-1.87-.52-.81-.8-1.65-.85-2.5-.05-.85.13-1.64.53-2.38.4-.73.99-1.35,1.77-1.84.27-.17.56-.34.89-.5Zm-1.4,3.41c-.23.49-.32,1-.26,1.54.06.54.25,1.06.57,1.56.46.72,1.08,1.19,1.86,1.4.78.21,1.6.1,2.45-.34l-3.46-5.42c-.54.34-.93.76-1.16,1.25Z"/><path class="cls-1" d="m7.41,95.65c.4-.99,1.25-1.75,2.56-2.27l5.53-2.22.62,1.55-5.3,2.14c-.94.38-1.56.9-1.86,1.57-.31.67-.3,1.42.03,2.23.33.83.85,1.38,1.56,1.66.71.28,1.56.23,2.54-.17l5.18-2.09.63,1.57-9.38,3.77-.63-1.57,1.33-.54c-.6-.12-1.14-.39-1.62-.82-.48-.43-.85-.96-1.1-1.61-.46-1.15-.49-2.22-.09-3.21Z"/><path class="cls-1" d="m14.85,89.15c-.16.27-.39.45-.7.53-.31.08-.6.04-.87-.12-.27-.16-.45-.39-.53-.71-.08-.3-.04-.58.12-.85s.39-.44.7-.52c.31-.08.6-.04.87.11s.44.38.52.68c.08.31.04.6-.11.88Z"/><path class="cls-1" d="m13.96,85.52c-.17.26-.42.42-.73.49-.31.06-.6,0-.86-.17-.26-.18-.42-.42-.48-.74-.06-.3,0-.58.17-.84.18-.25.42-.41.73-.48.31-.06.6,0,.86.16.26.17.42.41.48.71.06.32,0,.61-.17.87Z"/><path class="cls-1" d="m13.31,81.86c-.19.25-.44.4-.76.44-.32.04-.6-.03-.85-.22-.25-.19-.39-.45-.44-.77-.04-.31.03-.58.23-.83.19-.24.44-.39.76-.43s.6.03.85.21c.25.19.39.43.43.74.04.32-.03.6-.22.85Z"/><path class="cls-1" d="m11.55,71.55l.18-4.53,1.36.05-.24,6.22-12.84-.5.07-1.69,11.48.45Z"/><path class="cls-1" d="m5.03,54.91l9.91,1.98-.33,1.66-1.46-.29c.44.42.75.94.92,1.56.17.62.19,1.27.05,1.95-.16.78-.45,1.44-.9,2-.44.56-1.02.95-1.73,1.18-.71.23-1.52.25-2.44.07l-5.81-1.16.33-1.64,5.59,1.12c.98.19,1.78.1,2.4-.3.62-.39,1.02-1.02,1.19-1.88.18-.89.04-1.64-.4-2.26-.44-.62-1.18-1.03-2.22-1.24l-5.44-1.09.33-1.66Z"/><path class="cls-1" d="m4.4,50.63c-.28.14-.57.16-.88.05s-.52-.3-.66-.58c-.14-.28-.15-.58-.05-.88.1-.29.29-.51.57-.64.28-.13.57-.15.87-.05.3.1.52.29.66.57.14.28.16.56.06.85-.1.31-.3.53-.58.67Zm2.4-.91l9.57,3.26-.55,1.6-9.57-3.26.55-1.6Z"/><path class="cls-1" d="m17.6,49.15c-.5.45-1.05.73-1.63.85-.58.12-1.16.07-1.73-.16l.75-1.58c.48.17.95.13,1.42-.12s.86-.69,1.15-1.31c.28-.58.36-1.1.27-1.56-.1-.46-.34-.78-.73-.96-.4-.19-.78-.15-1.15.12-.36.27-.82.73-1.36,1.39-.5.6-.94,1.07-1.33,1.41-.39.34-.83.59-1.34.72-.51.14-1.05.07-1.64-.21-.47-.22-.83-.56-1.08-1.03-.26-.46-.38-1.01-.36-1.63.02-.62.18-1.26.49-1.93.48-1.02,1.13-1.72,1.94-2.11.81-.39,1.67-.39,2.58-.01l-.72,1.53c-.49-.19-.97-.18-1.42.04-.46.22-.82.62-1.1,1.21-.26.55-.35,1.04-.27,1.48.08.44.31.74.69.92.3.14.59.16.88.06.29-.1.56-.28.82-.52.26-.24.58-.59.98-1.05.49-.58.92-1.03,1.29-1.36.37-.33.79-.57,1.28-.7.48-.13,1.01-.07,1.57.18.5.24.88.59,1.15,1.06s.4,1.01.38,1.63c-.01.62-.18,1.26-.49,1.92-.33.71-.75,1.28-1.26,1.73Z"/><path class="cls-1" d="m15.15,35.87l5.01,3.23c.41.27.76.37,1.05.3.28-.07.57-.32.85-.76l.67-1.05,1.19.77-.83,1.28c-.51.79-1.07,1.27-1.69,1.43s-1.34-.02-2.17-.56l-5.01-3.23-.71,1.11-1.16-.75.71-1.11-2.14-1.38.92-1.42,2.14,1.38,1.44-2.23,1.16.75-1.44,2.23Z"/><path class="cls-1" d="m27.51,27.14l-5.34,6.14c.79.61,1.6.86,2.44.75.83-.1,1.54-.49,2.13-1.17.48-.55.75-1.12.82-1.71.07-.59-.05-1.15-.35-1.67l1.19-1.37c.55.84.79,1.77.71,2.79-.08,1.02-.51,1.98-1.31,2.9-.63.73-1.36,1.24-2.19,1.53-.82.29-1.68.34-2.56.15-.88-.19-1.72-.63-2.51-1.32-.79-.69-1.34-1.45-1.66-2.28-.32-.83-.39-1.68-.21-2.53.18-.85.6-1.65,1.25-2.4.63-.73,1.35-1.24,2.16-1.52.8-.29,1.61-.34,2.43-.16.82.18,1.57.57,2.27,1.17.24.21.48.45.73.71Zm-3.67-.38c-.53-.09-1.05-.03-1.56.19-.5.21-.95.54-1.34.99-.56.64-.83,1.37-.82,2.18.01.81.35,1.56,1.02,2.25l4.22-4.85c-.48-.42-.99-.67-1.53-.76Z"/><path class="cls-1" d="m28.13,19.54c.21-.6.61-1.16,1.21-1.68l1.13,1.31-.34.29c-1.44,1.24-1.49,2.63-.16,4.17l3.59,4.16-1.28,1.1-6.6-7.66,1.28-1.1,1.07,1.24c-.15-.63-.12-1.25.09-1.85Z"/><path class="cls-1" d="m42.63,15.99l-6.87,4.37c.59.81,1.29,1.28,2.12,1.41.83.14,1.62-.04,2.37-.51.62-.39,1.04-.86,1.27-1.41s.28-1.11.14-1.7l1.54-.98c.29.97.26,1.92-.11,2.88-.36.95-1.06,1.75-2.08,2.41-.81.52-1.66.8-2.53.85-.87.05-1.71-.15-2.5-.59-.79-.44-1.47-1.1-2.03-1.98-.56-.88-.88-1.77-.94-2.66-.07-.89.11-1.72.52-2.49.41-.77,1.04-1.42,1.88-1.95.81-.52,1.65-.8,2.5-.85.85-.05,1.64.13,2.38.53.73.4,1.35.99,1.84,1.77.17.27.34.56.5.89Zm-3.41-1.41c-.49-.24-1-.32-1.54-.26-.54.06-1.06.25-1.56.57-.72.46-1.19,1.08-1.41,1.86-.22.78-.1,1.6.34,2.45l5.42-3.45c-.34-.54-.76-.93-1.25-1.16Z"/><path class="cls-1" d="m50.51,7.48c.99.4,1.75,1.25,2.27,2.55l2.23,5.52-1.55.63-2.14-5.3c-.38-.93-.9-1.56-1.57-1.86-.67-.31-1.41-.29-2.23.03-.83.33-1.38.86-1.66,1.57-.28.71-.22,1.56.17,2.54l2.09,5.18-1.57.63-3.78-9.37,1.57-.63.54,1.33c.12-.6.39-1.14.82-1.62.43-.48.96-.85,1.61-1.11,1.15-.46,2.22-.49,3.21-.09Z"/><path class="cls-1" d="m57.03,14.9c-.27-.16-.45-.39-.53-.7-.08-.31-.04-.6.12-.87.16-.27.39-.45.7-.53.3-.08.58-.04.85.12.27.16.44.39.52.7s.05.6-.11.87-.38.44-.68.52c-.31.08-.6.05-.88-.11Z"/><path class="cls-1" d="m60.65,14.01c-.26-.17-.42-.42-.49-.73s0-.6.17-.86c.17-.26.42-.42.74-.49.3-.06.58,0,.84.17.26.17.42.42.48.73.06.31,0,.6-.16.86s-.41.42-.71.48c-.32.06-.6,0-.87-.17Z"/><path class="cls-1" d="m64.3,13.34c-.25-.19-.4-.44-.44-.76-.04-.32.03-.6.22-.85.19-.25.45-.4.76-.44.31-.04.58.03.83.22.24.19.39.44.43.76.04.32-.03.6-.21.85s-.43.39-.74.44c-.32.04-.6-.03-.85-.22Z"/></svg>