<?xml version="1.0" standalone="no"?>
<!DOCTYPE svg PUBLIC "-//W3C//DTD SVG 20010904//EN"
 "http://www.w3.org/TR/2001/REC-SVG-20010904/DTD/svg10.dtd">
<svg version="1.0" xmlns="http://www.w3.org/2000/svg"
 width="512.000000pt" height="512.000000pt" viewBox="0 0 512.000000 512.000000"
 preserveAspectRatio="xMidYMid meet">
<metadata>
Created by potrace 1.14, written by Peter Selinger 2001-2017
</metadata>
<g transform="translate(0.000000,512.000000) scale(0.100000,-0.100000)"
fill="#000000" stroke="none">
<path d="M2379 5116 c-2 -2 -35 -6 -74 -9 -385 -33 -821 -188 -1155 -410 -642
-427 -1054 -1105 -1137 -1872 -10 -93 -9 -463 1 -545 5 -36 10 -72 11 -80 15
-121 67 -336 116 -478 140 -405 396 -789 719 -1077 77 -69 284 -225 298 -225
6 0 12 -4 14 -8 10 -25 297 -176 448 -235 87 -34 232 -81 300 -97 30 -7 62
-15 70 -18 8 -2 24 -6 35 -8 11 -1 34 -6 50 -9 17 -4 49 -10 72 -12 24 -3 40
-9 37 -14 -3 -5 5 -5 19 0 13 5 29 6 36 2 18 -11 98 -15 326 -15 162 0 350 8
350 14 0 2 37 9 80 14 22 3 51 8 65 11 14 3 36 8 50 11 14 3 46 11 73 19 26 8
47 11 47 8 0 -3 6 -1 13 5 7 6 24 12 37 14 14 2 31 7 38 12 7 4 16 5 19 2 3
-3 11 -2 17 3 9 7 69 30 96 36 30 8 235 100 238 107 2 4 12 8 22 8 10 0 26 7
34 16 9 8 25 16 35 17 11 0 18 4 15 8 -4 8 35 25 49 21 4 -1 7 2 7 8 0 13 56
41 65 32 3 -4 5 0 3 8 -2 8 4 15 12 15 8 0 26 10 40 23 14 12 28 22 31 22 3 0
19 11 35 25 16 14 32 25 36 25 5 0 16 8 26 17 29 28 67 57 72 57 3 0 13 10 24
23 10 14 25 22 33 19 8 -3 12 -2 9 3 -3 4 11 23 32 42 20 19 38 32 39 29 1 -3
12 9 25 25 29 39 78 86 78 77 1 -4 8 6 16 21 8 15 19 25 25 22 5 -4 8 -1 7 7
-2 7 3 12 9 11 7 -2 12 1 10 6 -2 8 14 28 100 130 38 44 40 47 52 69 7 13 16
20 20 17 5 -2 8 3 7 13 0 9 5 16 12 14 8 -1 11 2 8 7 -8 13 85 152 97 144 5
-3 7 -1 3 5 -7 12 13 62 26 62 4 0 8 7 8 15 0 15 19 55 31 65 6 5 22 41 23 52
1 4 8 15 16 25 8 10 15 24 16 31 2 29 5 33 16 26 7 -4 8 -3 4 4 -3 6 2 30 13
54 11 24 29 72 41 108 12 36 24 72 27 80 3 8 8 24 10 35 2 11 8 22 13 23 6 2
8 7 5 12 -3 5 -1 20 5 35 5 14 12 38 15 53 3 15 7 38 10 52 3 14 8 36 11 50 3
14 7 32 9 40 3 8 7 32 11 54 3 21 7 46 9 56 19 101 27 500 13 650 -13 132 -46
303 -80 415 -12 39 -22 75 -23 80 -19 92 -155 399 -237 533 -21 34 -38 64 -38
67 0 3 -7 13 -14 22 -8 10 -45 61 -83 113 -37 52 -79 108 -93 124 -122 143
-204 225 -346 346 -16 14 -60 49 -99 79 -38 29 -78 59 -88 67 -9 8 -20 14 -23
14 -4 0 -39 21 -78 47 -74 49 -282 156 -376 193 -159 64 -405 136 -498 145
-18 2 -36 6 -40 8 -4 3 -36 8 -72 12 -36 4 -74 9 -85 12 -24 5 -450 14 -456 9z"/>
</g>
</svg>
